<?xml version="1.0" encoding="UTF-8"?>
<svg width="22px" height="19px" viewBox="0 0 22 19" version="1.1" xmlns="http://www.w3.org/2000/svg" xmlns:xlink="http://www.w3.org/1999/xlink">
    <!-- Generator: Sketch 53.2 (72643) - https://sketchapp.com -->
    <title>Shape</title>
    <desc>Created with Sketch.</desc>
    <g id="Symbols" stroke="none" stroke-width="1" fill="none" fill-rule="evenodd">
        <g id="icon-/-ant" transform="translate(-1.000000, -3.000000)" fill="#575757" fill-rule="nonzero">
            <path d="M20.692631,13.6750461 L17.1071586,11.521532 C16.9163599,11.4069213 16.6987622,11.3463962 16.4779186,11.3463962 L13.5278615,11.3463962 C13.5366889,11.2327637 13.5352367,11.249404 13.5352367,11.131166 C13.5352367,10.8767565 13.5202216,10.8650356 13.4807555,10.6343063 L16.5695179,9.76694183 C16.7788423,9.70816924 16.9705515,9.59359937 17.1239821,9.43562256 L19.8010625,6.67922065 C19.9170064,6.55984137 20.0433156,6.30213745 19.8851355,6.10358251 C19.7269554,5.90502757 19.4971305,5.9449566 19.3812262,6.06433588 L16.7041458,8.82073779 C16.6236699,8.90359818 16.5230849,8.96367501 16.4132767,8.99452859 L13.329502,9.8604665 C13.2175958,9.54174135 13.0657881,9.26846103 12.8845293,9.05770301 C13.1155462,8.97867384 13.3236831,8.86769065 13.502923,8.7256501 C13.9434623,8.37647895 14.1763396,7.86986085 14.1763396,7.26061488 C14.1763396,6.69041478 13.9739821,6.27608633 13.6184711,5.78858358 L14.0063229,5.78858358 C14.230175,5.78858358 14.4358576,5.66394656 14.5431324,5.46329645 C15.1507591,4.32664595 16.1444167,3.04122988 17.11084,2.84221008 C17.2716334,2.80907407 17.4918979,2.61321097 17.4385837,2.3663479 C17.3852694,2.11948484 17.1552146,2.02704201 16.9944211,2.0600965 C16.3533849,2.19211066 15.7008294,2.65430288 15.0549243,3.43383448 C14.5590455,4.03227967 14.1955383,4.66312721 14.0229881,4.98588737 C14.0191088,4.99314224 14.0117856,4.99465027 14.0063625,4.99465027 L12.996198,4.99465027 C12.6805884,4.78144679 12.332638,4.66793662 11.9755831,4.66793662 C11.6185282,4.66793662 11.2705779,4.78144679 10.9549682,4.99465027 L9.94476417,4.99465027 C9.93930146,4.99465027 9.93197828,4.99314224 9.92813855,4.98588737 C9.75558841,4.66312721 9.3920812,4.03227967 8.89620241,3.43383448 C8.25029724,2.65430288 7.59774182,2.19211066 6.95670558,2.0600965 C6.79587254,2.02700125 6.57577646,2.12291841 6.53430823,2.3663479 C6.49284001,2.6097774 6.67949323,2.80911483 6.84028669,2.84221008 C7.80674956,3.04122988 8.80036762,4.32664595 9.40799429,5.46329645 C9.51526909,5.66394656 9.72095171,5.78858358 9.94480375,5.78858358 L10.3326556,5.78858358 C9.97714453,6.27608633 9.77478704,6.69041478 9.77478704,7.26061488 C9.77478704,7.86986085 10.0076644,8.37647895 10.4482036,8.7256501 C10.627404,8.86769065 10.8355805,8.97867384 11.0665974,9.05770301 C10.885299,9.26850179 10.7334913,9.54174135 10.6216247,9.8604665 L7.53785002,8.99452859 C7.42808137,8.96371577 7.3274964,8.90363893 7.2470205,8.82073779 L4.56990051,6.06433588 C4.45395664,5.9449566 4.23186846,5.96583596 4.11294154,6.13314216 C3.99401462,6.30044835 4.03412025,6.55988213 4.15006413,6.67922065 L6.82714453,9.43562256 C6.98057522,9.59359937 7.1722844,9.70816924 7.38160882,9.76694183 L10.4482036,10.6323386 C10.4087376,10.8630272 10.4134087,10.8549228 10.4134087,11.1093323 C10.4134087,11.2275704 10.413878,11.2327637 10.422745,11.3463962 L7.47324763,11.3463962 C7.25236445,11.3463962 7.03476681,11.4069621 6.84400766,11.521532 L3.25849569,13.6750053 C3.11686128,13.7600666 3.01991811,13.9741903 3.13100208,14.2091899 C3.24208605,14.4441896 3.51061128,14.4139973 3.55763802,14.3857522 L7.1431104,12.2322381 C7.24318078,12.1721205 7.35734334,12.1403702 7.47320804,12.1403702 L10.5167645,12.1403702 C10.6251081,12.6034591 10.8103254,12.9979121 11.0481113,13.2831751 C10.5438009,13.421629 10.1026283,13.6777096 9.74644432,14.0438767 C9.50236445,14.294781 9.30566758,14.5935757 9.15682873,14.9323128 L7.1178553,16.2101816 C6.90164313,16.3691774 6.74294766,16.5904101 6.65898831,16.8498736 L4.85293183,22.428338 C4.80107574,22.5885158 4.89275297,22.7991923 5.1003628,22.9063106 C5.30797263,23.0134289 5.55211814,22.8410983 5.59360301,22.7129969 L7.3996199,17.1344509 C7.44367778,16.9983202 7.52688503,16.8822831 7.64033507,16.7988928 L8.86104412,16.1040786 C8.82141974,16.3546569 8.82289137,16.399875 8.82289137,16.6760084 C8.82289137,18.9840349 10.5023952,21.6151477 11.9755831,21.6151477 C13.4488106,21.6151477 15.1283145,18.9839942 15.1283145,16.6760084 C15.1283145,16.399875 15.1410804,16.2883918 15.101456,16.0378136 L16.3108708,16.7988928 C16.4242812,16.8823238 16.5075281,16.998361 16.5515859,17.1344917 L18.3576028,22.7129969 C18.3990877,22.8410983 18.5993864,23.0006822 18.8488302,22.9063106 C19.098274,22.811939 19.1500905,22.588475 19.098274,22.428338 L17.2922175,16.8498736 C17.2082186,16.5903694 17.0495627,16.3691366 16.8333506,16.2101409 L14.7942584,14.9322721 C14.6454195,14.5935349 14.4487226,14.2947403 14.2046428,14.0438359 C13.8484587,13.6776688 13.4072862,13.4215883 12.9029758,13.2831344 C13.1407617,12.9978713 13.3259394,12.6033776 13.4343226,12.1403295 L16.4778791,12.1403295 C16.5937438,12.1403295 16.7079063,12.1720797 16.8079371,12.2321973 L20.3934095,14.3857114 C20.4404362,14.4139565 20.7322316,14.5163682 20.8938941,14.260194 C21.0555566,14.0040199 20.8342654,13.7601074 20.692631,13.6750461 Z M13.5825281,7.26061488 C13.5825281,7.45237982 13.4309975,7.60840026 13.2447906,7.60840026 C13.0585837,7.60840026 12.907053,7.45237982 12.907053,7.26061488 C12.907053,7.06884994 13.0585837,6.91287026 13.2447906,6.91287026 C13.4309975,6.91287026 13.5825281,7.0688907 13.5825281,7.26061488 Z M10.3685194,7.26061488 C10.3685194,7.0688907 10.5200501,6.91287026 10.706257,6.91287026 C10.8925034,6.91287026 11.0439945,7.0688907 11.0439945,7.26061488 C11.0439945,7.45237982 10.8924639,7.60840026 10.706257,7.60840026 C10.5200501,7.60840026 10.3685194,7.45237982 10.3685194,7.26061488 Z M10.8895457,8.11676207 C11.3080279,8.08149709 11.6382483,7.71668453 11.6382483,7.27299357 C11.6382483,6.80605652 11.2725569,6.42620237 10.8231067,6.42620237 C10.7939401,6.42620237 10.7651545,6.42789364 10.7367499,6.43098833 C10.9840774,5.92932607 11.4267036,5.52367091 11.9337942,5.52367091 C12.4408849,5.52367091 12.8835111,5.92932607 13.1308386,6.43098833 C13.1024687,6.42785766 13.0736484,6.42620237 13.0444818,6.42620237 C12.594997,6.42620237 12.2293402,6.8060925 12.2293402,7.27299357 C12.2293402,7.71664854 12.5595605,8.08146111 12.9780428,8.11676207 C12.704112,8.3499787 12.311852,8.44541004 11.9337942,8.44541004 C11.5557365,8.44541004 11.1634765,8.34994271 10.8895457,8.11676207 Z M13.6723099,14.6715181 C14.0233386,15.0317654 14.2472899,15.5326759 14.3334535,16.1391315 C14.1794708,16.2673396 13.9780888,16.3850732 13.7439832,16.4826576 C13.6017483,16.5420005 13.533188,16.7085644 13.5908899,16.8547887 C13.6347314,16.9658186 13.7387207,17.0331603 13.8485654,17.0331603 C13.8833644,17.0331603 13.9187564,17.0263804 13.9529624,17.012135 C14.1052033,16.9486404 14.2446957,16.8782136 14.3722179,16.801921 C14.3621377,17.3168102 14.248587,17.8767971 14.0506886,18.4190724 C13.8083928,18.5728003 13.5057639,18.7008179 13.1724867,18.7894895 C13.0238776,18.829026 12.934601,18.984925 12.9730689,19.1376625 C13.0054961,19.2664039 13.1183056,19.3517998 13.2419365,19.3517998 C13.2649876,19.3517998 13.2884463,19.3488288 13.3117939,19.3426203 C13.4416878,19.3080734 13.5659858,19.2683083 13.6856143,19.2245058 C13.6349538,19.3167577 13.5824032,19.4077527 13.526925,19.4962719 C13.0339949,20.2828512 12.4405221,20.771497 11.9781292,20.771497 C11.5157363,20.771497 10.9223006,20.2828512 10.4293335,19.4962719 C10.373707,19.4075242 10.3210082,19.3163007 10.2702365,19.2237821 C10.7764339,19.4092001 11.3662378,19.5108982 11.9781292,19.5108982 C12.1316302,19.5108982 12.2560764,19.3830329 12.2560764,19.2252295 C12.2560764,19.0674261 12.1316302,18.9395608 11.9781292,18.9395608 C11.1759366,18.9395608 10.4264799,18.7502196 9.90549572,18.4188058 C9.70763439,17.8765304 9.59408371,17.3165436 9.58404055,16.8016543 C10.1862224,17.1614826 11.0501933,17.3735631 11.9781292,17.3735631 C12.1867749,17.3735631 12.3954947,17.36286 12.5984702,17.3417586 C12.7511929,17.3258754 12.862483,17.1857454 12.8470291,17.02878 C12.8315753,16.8718527 12.6953812,16.7570519 12.5425102,16.773316 C12.3580274,16.7925129 12.1681339,16.8022257 11.9781292,16.8022257 C11.0099836,16.8022257 10.1077301,16.5452 9.62276786,16.1395124 C9.70885736,15.5328664 9.93284572,15.0318415 10.2839486,14.6715181 C10.7025,14.2419866 11.2883755,14.0149753 11.9781292,14.0149753 C12.6678829,14.0149753 13.2537585,14.2419866 13.6723099,14.6715181 Z M11.9781292,12.8280187 C11.5530268,12.8280187 11.1800997,12.0600502 11.1800997,11.1845405 C11.1800997,10.3090645 11.5530268,9.54106221 11.9781292,9.54106221 C12.4032317,9.54106221 12.7761588,10.3090307 12.7761588,11.1845405 C12.7761588,12.0600502 12.4032317,12.8280187 11.9781292,12.8280187 Z" id="Shape" transform="translate(12.016674, 12.496755) rotate(-270.000000) translate(-12.016674, -12.496755) "></path>
        </g>
    </g>
</svg>