<?xml version="1.0" encoding="UTF-8"?>
<svg width="22px" height="14px" viewBox="0 0 22 14" version="1.1" xmlns="http://www.w3.org/2000/svg" xmlns:xlink="http://www.w3.org/1999/xlink">
    <!-- Generator: Sketch 53.2 (72643) - https://sketchapp.com -->
    <title>Shape</title>
    <desc>Created with Sketch.</desc>
    <g id="Symbols" stroke="none" stroke-width="1" fill="none" fill-rule="evenodd">
        <g id="icon-/-bicycle" transform="translate(-1.000000, -5.000000)" fill="#575757" fill-rule="nonzero">
            <path d="M18.1664651,9.40745388 C17.6531773,9.40835039 17.1434852,9.49190574 16.6568057,9.65489241 L16.5095613,8.99989754 L16.5095613,7.91762295 L16.5066848,7.91762295 C16.5038082,7.85235656 16.4833126,7.78888317 16.4477151,7.73401639 L16.0928184,7.20417519 L18.6281544,7.20417519 C18.859898,7.20435453 19.0549653,7.37684426 19.0830119,7.60617317 C19.1112382,7.83550207 18.9634545,8.04976946 18.7387225,8.10571208 L17.8917528,8.31693136 C17.7614082,8.34615781 17.6573124,8.44351946 17.6195574,8.57118339 C17.5816227,8.69902666 17.6163213,8.83709016 17.7098098,8.93230022 C17.8032983,9.02733093 17.9411938,9.06444672 18.0701,9.02930328 L18.91689,8.81844262 C19.5062271,8.67553792 19.8947437,8.11503585 19.8206721,7.51472847 C19.7466004,6.9144211 19.2334924,6.46454918 18.6270757,6.46831454 L15.4049588,6.46831454 C15.2692207,6.46831454 15.1442697,6.5429047 15.0802661,6.66232071 C15.0162624,6.78173667 15.0232741,6.92661372 15.0986042,7.03939551 L15.71419,7.96029715 L9.5586918,8.30133197 L9.03947109,7.03527153 L10.3031838,6.87766393 C10.7945378,6.81185962 11.1514121,6.37830431 11.120489,5.88486169 C11.0897457,5.39123978 10.6816325,5.00537912 10.1857839,5.00089651 L6.1999379,5.00089651 C6.05107546,5.00089651 5.91677563,5.09036885 5.85978362,5.22753585 C5.80279156,5.36488218 5.83443382,5.52266907 5.93960841,5.62774077 L6.94299163,6.62807377 C7.2685833,6.95010246 7.70869836,7.13084016 8.16733131,7.13066087 C8.20400761,7.13066087 8.24086364,7.12635759 8.27987709,7.12384732 L8.89851921,8.63196721 L7.96722998,9.90753071 C6.22007389,9.03934426 4.11927957,9.31636782 2.65816228,10.6073514 C1.19722475,11.8985143 0.668655192,13.945082 1.32253528,15.7795338 C1.97659519,17.6138063 3.68186126,18.8683914 5.63217507,18.9499744 C7.58266869,19.0313781 9.3871764,17.9236424 10.1927955,16.1501537 C10.4292135,16.3029201 10.7048248,16.3843238 10.9865488,16.3845031 C11.0606204,16.3827101 11.1345123,16.3753586 11.2075052,16.3624487 L11.7763468,17.3080943 C11.8426876,17.4183658 11.9622451,17.4857838 12.0911513,17.4861424 L12.827553,17.4861424 C13.0308905,17.4861424 13.1957538,17.3217213 13.1957538,17.1189293 C13.1957538,16.9161373 13.0308905,16.7517162 12.827553,16.7517162 L12.2995227,16.7517162 L11.8887127,16.0683914 C12.4131472,15.6681865 12.6021018,14.9662142 12.3489638,14.3578381 L13.5804949,12.8224642 C12.9934951,14.7946209 13.7390658,16.9199027 15.4310277,18.0966701 C17.1228099,19.2736168 19.3801974,19.2370389 21.0329661,18.0063012 C22.6857348,16.7755635 23.3620882,14.6273309 22.7112644,12.6750768 C22.0606204,10.7230021 20.2291449,9.40637809 18.1664651,9.40745388 L18.1664651,9.40745388 Z M15.7731597,8.69400612 L15.7731597,8.91132174 L11.8842181,13.7586066 C11.844845,13.7270492 11.8038539,13.6978227 11.7612448,13.670748 L9.85389972,9.02195186 L15.7731597,8.69400612 Z M7.46365063,6.10881148 L7.08879774,5.73532273 L10.1857839,5.73532273 C10.2528439,5.73532273 10.3157688,5.76759732 10.3551419,5.82174694 C10.3943351,5.87607584 10.405302,5.94582481 10.3842671,6.00929814 C10.3590971,6.08568136 10.2918574,6.14072744 10.2118528,6.15023054 L8.2861696,6.39049694 C7.98305111,6.42797131 7.67975285,6.32397541 7.46365063,6.10881148 Z M9.22626831,9.43165984 L10.8761604,13.457915 C10.7726039,13.4652664 10.6701262,13.4839139 10.570525,13.5133197 C10.3887618,12.2130123 9.67555244,11.0459273 8.60025495,10.2887295 L9.22626831,9.43165984 Z M6.87485289,13.8349897 C6.79610684,13.5966957 6.63825509,13.3926486 6.42718686,13.2561988 L8.16607284,10.8800717 C9.18114212,11.5911885 9.81111074,12.7290471 9.87421548,13.964626 C9.8517423,13.9909836 9.82854992,14.0171619 9.80787462,14.0449539 L6.87485289,13.8349897 Z M5.83173707,13.8140113 C6.03507455,13.8140113 6.1999379,13.9784324 6.1999379,14.1812244 C6.1999379,14.3840164 6.03507455,14.5484375 5.83173707,14.5484375 C5.62839958,14.5484375 5.46353623,14.3840164 5.46353623,14.1812244 C5.46353623,13.9784324 5.62839958,13.8140113 5.83173707,13.8140113 Z M5.83173707,18.2205686 C4.17447371,18.2205686 2.68459072,17.2137808 2.07008368,15.6787654 C1.45575642,14.14375 1.8410369,12.3903432 3.04272356,11.252126 C4.24441033,10.1140881 6.02015234,9.82092727 7.52549686,10.5119621 L5.63181552,13.0998463 C5.1063023,13.1945185 4.72389839,13.6508453 4.72371862,14.1835553 C4.72371862,14.7162654 5.10576293,15.1727715 5.63127615,15.2678022 C6.15678937,15.362833 6.67529094,15.0693135 6.86262747,14.5704918 L9.53064526,14.760374 C9.4869574,15.0217981 9.52956656,15.2902152 9.65182075,15.5256404 C9.08028243,17.1408043 7.54922856,18.2209273 5.83173707,18.2205686 Z M11.3020725,15.0936988 C11.1956394,14.9240779 10.9723457,14.8706455 10.8002909,14.9737449 C10.6282361,15.0770236 10.5707047,15.2984631 10.6710251,15.4720287 L10.7531871,15.6086578 C10.4432368,15.5032274 10.240978,15.2057633 10.2576981,14.8796107 C10.2742384,14.553458 10.5054426,14.2778689 10.824562,14.2043545 C11.1435016,14.1306609 11.4726889,14.2769723 11.6312598,14.5626025 C11.7896509,14.8482326 11.7391311,15.2041496 11.5072078,15.4345543 L11.3020725,15.0936988 Z M15.9484506,9.86826333 L15.96571,9.94661885 C15.9189658,9.97082481 15.8718619,9.99538934 15.8258368,10.0199539 L15.9484506,9.86826333 Z M18.1664651,18.2205686 C16.3362481,18.2203893 14.7338193,16.9952101 14.2586461,15.2323002 C13.7834728,13.4695697 14.5538539,11.6080431 16.1374052,10.6926998 C16.3781381,11.6681096 16.8002746,12.5899078 17.3818809,13.410041 C17.0135003,13.7849642 16.9613624,14.3669826 17.2574693,14.8010758 C17.5535761,15.2349897 18.1155858,15.4003074 18.6004674,15.1960809 C19.0853491,14.9918545 19.3582636,14.4747438 19.2529093,13.9605021 C19.1473751,13.4462602 18.6928772,13.0776127 18.1664651,13.079585 C18.1296091,13.079585 18.0958093,13.0869365 18.060032,13.0901639 C17.4627844,12.2809682 17.0395692,11.357377 16.8169946,10.3773054 C18.3365422,9.84047131 20.0306616,10.2539447 21.1298706,11.4298156 C22.2290795,12.6058658 22.5241076,14.3201844 21.8808349,15.7942367 C21.2375621,17.2684682 19.7786022,18.2214651 18.1664651,18.2205686 Z M17.848784,14.0067623 C17.8626275,14.022541 17.8752125,14.0399334 17.8892357,14.0560707 C18.023176,14.2084785 18.2558185,14.2237192 18.408816,14.0901383 C18.4370424,14.0636014 18.4607741,14.0327613 18.4791122,13.9986937 C18.5138108,14.0533811 18.5330478,14.1164959 18.5346659,14.1812244 C18.5346659,14.3840164 18.3698026,14.5484375 18.1664651,14.5484375 C17.9631276,14.5484375 17.7982643,14.3840164 17.7982643,14.1812244 C17.7997025,14.1197234 17.816962,14.0596568 17.848784,14.0067623 Z M2.98699006,13.3322234 C2.80091199,13.2502818 2.71659257,13.0335041 2.79893438,12.8479252 C2.90842378,12.6004867 3.04793738,12.3675717 3.21459861,12.1542008 C3.29424358,12.0473361 3.42566684,11.9919314 3.55798902,12.0091445 C3.69031119,12.0265369 3.80285698,12.1138576 3.8521182,12.2375768 C3.90155924,12.3612961 3.87980515,12.5018699 3.79566556,12.6051486 C3.66604013,12.7710041 3.55762942,12.9521004 3.47277064,13.1446721 C3.39060864,13.330251 3.17306813,13.414165 2.98699006,13.3322234 Z M5.83173707,16.7517162 C6.03507455,16.7517162 6.1999379,16.9161373 6.1999379,17.1189293 C6.1999379,17.3217213 6.03507455,17.4861424 5.83173707,17.4861424 C4.12754969,17.4922387 2.69897356,16.2034068 2.53446981,14.5116803 C2.51415405,14.3099642 2.66175799,14.1299437 2.86401674,14.1096824 C3.06645531,14.0894211 3.24695997,14.2364498 3.26727577,14.4383453 C3.39510327,15.7540727 4.50635788,16.7563781 5.83173707,16.7517162 Z M18.1664651,10.6926998 C19.9614442,10.6876793 21.4667887,12.0426742 21.6453158,13.823873 C21.6555635,13.9210553 21.6266181,14.0182377 21.5649516,14.094083 C21.5032852,14.169749 21.4137519,14.2179815 21.316488,14.2278432 C21.3042626,14.2296363 21.2918574,14.2296363 21.2796319,14.2296363 C21.0906773,14.2294569 20.932466,14.0867316 20.9135885,13.8991803 C20.7729962,12.4925461 19.5838945,11.4226434 18.1664651,11.427126 C17.9631276,11.427126 17.7982643,11.2627049 17.7982643,11.0599129 C17.7982643,10.8571209 17.9631276,10.6926998 18.1664651,10.6926998 Z M21.1949529,15.0544314 C21.2848457,15.0928022 21.3556812,15.1652408 21.3919979,15.2559682 C21.4283146,15.3465164 21.4268763,15.4478227 21.3882224,15.5372951 C21.2789128,15.7960297 21.1385003,16.0404201 20.9704008,16.265625 C20.8483264,16.4277152 20.6174817,16.460707 20.4547758,16.3389601 C20.2922496,16.2172131 20.2591691,15.987167 20.3812434,15.8248975 C20.5142848,15.647208 20.625572,15.4542777 20.7125882,15.2502305 C20.7915141,15.0632172 21.0076164,14.9757172 21.1949529,15.0544314 Z" id="Shape"></path>
        </g>
    </g>
</svg>