<?xml version="1.0" encoding="UTF-8"?>
<svg width="22px" height="12px" viewBox="0 0 22 12" version="1.1" xmlns="http://www.w3.org/2000/svg" xmlns:xlink="http://www.w3.org/1999/xlink">
    <!-- Generator: Sketch 53.2 (72643) - https://sketchapp.com -->
    <title>Combined Shape</title>
    <desc>Created with Sketch.</desc>
    <g id="Symbols" stroke="none" stroke-width="1" fill="none" fill-rule="evenodd">
        <g id="icon-/-bus" transform="translate(-1.000000, -6.000000)" fill="#575757" fill-rule="nonzero">
            <g id="icon-/-snail">
                <g id="bus" transform="translate(1.500000, 6.000000)">
                    <path d="M16.2421875,5.52934297 L16.2421875,2.28948649 C16.2421875,2.06558108 16.4258145,1.88408108 16.6523438,1.88408108 L20.1290742,1.88408108 C19.9637402,1.28691892 19.4103164,0.846648649 18.7544355,0.846648649 L16.6523438,0.846648649 C16.4258145,0.846648649 16.2421875,0.665148649 16.2421875,0.441243243 C16.2421875,0.217337838 16.4258145,0.0358378378 16.6523438,0.0358378378 L18.7544355,0.0358378378 C19.9926563,0.0358378378 21,1.03151351 21,2.25539189 L21,10.1878784 C21,10.4117838 20.816373,10.5932838 20.5898438,10.5932838 L18.9727617,10.5932838 C18.7837617,11.3783919 18.0687363,11.9642432 17.217375,11.9642432 C16.3660137,11.9642432 15.6509883,11.3783919 15.4619883,10.5932838 L8.20160726,10.5932838 C8.01269073,11.3785144 7.29710571,11.9642838 6.4456875,11.9642838 C5.59426929,11.9642838 4.87868427,11.3785144 4.68976774,10.5932838 L0.41015625,10.5932838 C0.183626953,10.5932838 0,10.4117838 0,10.1878784 L0,2.06286486 C0,2.01417568 0.00914648438,1.96767568 0.0251015625,1.92441892 C0.187277344,0.856986486 1.12116211,0.0358378378 2.24556445,0.0358378378 L13.3710938,0.0358378378 C13.597623,0.0358378378 13.78125,0.217337838 13.78125,0.441243243 C13.78125,0.665148649 13.597623,0.846648649 13.3710938,0.846648649 L2.24552344,0.846648649 C1.67581641,0.846648649 1.18338281,1.17883784 0.955417969,1.65745946 L2.21484375,1.65745946 C2.44137305,1.65745946 2.625,1.83895946 2.625,2.06286486 L2.625,4.33313514 C2.625,4.55704054 2.44137305,4.73854054 2.21484375,4.73854054 L0.8203125,4.73854054 L0.8203125,9.78251351 L4.68627558,9.78251351 C4.86971395,8.98985604 5.58892957,8.39671622 6.4456875,8.39671622 C7.30243083,8.39671622 8.02163652,8.98983581 8.20509003,9.78247297 L11.3203125,9.78247297 L15.421875,9.78255405 L15.458543,9.78255405 C15.6420469,8.98998649 16.3607227,8.39675676 17.217375,8.39675676 C18.0740273,8.39675676 18.7927031,8.99002703 18.976207,9.78255405 L20.1796875,9.78255405 L20.1796875,6.34009459 L16.696413,6.34009459 C8.28985048,6.34015379 4.0506122,6.34015379 3.97869814,6.34015379 C3.87082705,6.34015379 3.76500673,6.29718081 3.68871767,6.22137 C3.61242861,6.1459646 3.56854189,6.04177541 3.56854189,5.93474838 C3.56854189,5.82812676 3.61242861,5.72353216 3.68871767,5.64812676 C3.76500673,5.57272135 3.87082705,5.52934297 3.97869814,5.52934297 C4.0493052,5.52934297 8.13713499,5.52934297 16.2421875,5.52934297 Z M6.4456875,11.153473 C6.98844727,11.153473 7.4300625,10.716973 7.4300625,10.1805 C7.4300625,9.64402703 6.98844727,9.20752703 6.4456875,9.20752703 C5.90292773,9.20752703 5.4613125,9.64402703 5.4613125,10.1805 C5.4613125,10.716973 5.90292773,11.153473 6.4456875,11.153473 Z M17.217334,11.153473 C17.7601348,11.153473 18.201709,10.716973 18.201709,10.1805 C18.201709,9.64402703 17.7600938,9.20752703 17.217334,9.20752703 C16.6745742,9.20752703 16.232959,9.64402703 16.232959,10.1805 C16.232959,10.716973 16.6745742,11.153473 17.217334,11.153473 Z M20.1796875,5.52924324 L20.1796875,2.69485135 L17.0625,2.69485135 L17.0625,5.52924324 L20.1796875,5.52924324 Z M15.3016992,0.1545 C15.3779883,0.229905405 15.421875,0.3345 15.421875,0.441121622 C15.421875,0.547743243 15.3779883,0.652337838 15.3016992,0.727743243 C15.2254102,0.803148649 15.1195898,0.846527027 15.0117188,0.846527027 C14.9038477,0.846527027 14.7980273,0.803148649 14.7217383,0.727743243 C14.6454492,0.652337838 14.6015625,0.547743243 14.6015625,0.441121622 C14.6015625,0.3345 14.6454492,0.229905405 14.7217383,0.1545 C14.7980273,0.0790945946 14.9038477,0.0357162162 15.0117188,0.0357162162 C15.1195898,0.0357162162 15.2254102,0.0790945946 15.3016992,0.1545 Z M1.8046875,2.46827027 L0.8203125,2.46827027 L0.8203125,3.92772973 L1.8046875,3.92772973 L1.8046875,2.46827027 Z M2.30446369,5.64923679 C2.38075275,5.72464219 2.42463947,5.82923679 2.42463947,5.93585841 C2.42463947,6.04248003 2.38075275,6.14707462 2.30446369,6.22248003 C2.22817462,6.29829084 2.12235431,6.34126381 2.01448322,6.34126381 C1.90661212,6.34126381 1.80079181,6.29829084 1.72450275,6.22248003 C1.64821369,6.14707462 1.60432697,6.04288544 1.60432697,5.93585841 C1.60432697,5.82923679 1.64821369,5.72464219 1.72450275,5.64923679 C1.80079181,5.57383138 1.90661212,5.530453 2.01448322,5.530453 C2.12235431,5.530453 2.22817462,5.57383138 2.30446369,5.64923679 Z M10.0898438,1.65745946 C10.316373,1.65745946 10.5,1.83895946 10.5,2.06286486 L10.5,4.33313514 C10.5,4.55704054 10.316373,4.73854054 10.0898438,4.73854054 L7.79296875,4.73854054 C7.56643945,4.73854054 7.3828125,4.55704054 7.3828125,4.33313514 L7.3828125,2.06286486 C7.3828125,1.83895946 7.56643945,1.65745946 7.79296875,1.65745946 L10.0898438,1.65745946 Z M9.6796875,3.92772973 L9.6796875,2.46827027 L8.203125,2.46827027 L8.203125,3.92772973 L9.6796875,3.92772973 Z M14.0273438,1.66216216 C14.253873,1.66216216 14.4375,1.84366216 14.4375,2.06756757 L14.4375,4.33783784 C14.4375,4.56174324 14.253873,4.74324324 14.0273438,4.74324324 L11.7304688,4.74324324 C11.5039395,4.74324324 11.3203125,4.56174324 11.3203125,4.33783784 L11.3203125,2.06756757 C11.3203125,1.84366216 11.5039395,1.66216216 11.7304688,1.66216216 L14.0273438,1.66216216 Z M13.6171875,3.93243243 L13.6171875,2.47297297 L12.140625,2.47297297 L12.140625,3.93243243 L13.6171875,3.93243243 Z M6.15234375,1.65745946 C6.37887305,1.65745946 6.5625,1.83895946 6.5625,2.06286486 L6.5625,4.33313514 C6.5625,4.55704054 6.37887305,4.73854054 6.15234375,4.73854054 L3.85546875,4.73854054 C3.62893945,4.73854054 3.4453125,4.55704054 3.4453125,4.33313514 L3.4453125,2.06286486 C3.4453125,1.83895946 3.62893945,1.65745946 3.85546875,1.65745946 L6.15234375,1.65745946 Z M5.7421875,3.92772973 L5.7421875,2.46827027 L4.265625,2.46827027 L4.265625,3.92772973 L5.7421875,3.92772973 Z" id="Combined-Shape"></path>
                </g>
            </g>
        </g>
    </g>
</svg>