<?xml version="1.0" encoding="UTF-8"?>
<svg width="24px" height="15px" viewBox="0 0 24 15" version="1.1" xmlns="http://www.w3.org/2000/svg" xmlns:xlink="http://www.w3.org/1999/xlink">
    <!-- Generator: Sketch 53.2 (72643) - https://sketchapp.com -->
    <title>Shape</title>
    <desc>Created with Sketch.</desc>
    <defs>
        <path d="M23.9167014,9.14878738 C23.8307699,9.04404174 23.6945322,8.98959864 23.5567124,9.00492914 L23.5567124,9.00146731 L16.2993351,9.74576064 L12.328657,4.16836878 C12.278598,4.09645787 12.204517,4.04312971 12.1186634,4.01720223 C11.9510771,3.96735977 11.769275,4.02833963 11.6702772,4.16759948 L7.70119898,9.74576064 L0.443021713,9.00146731 L0.443021713,9.00492914 C0.288953358,8.98737677 0.138398901,9.05787467 0.0577559111,9.18533183 C-0.0228870791,9.31278899 -0.0187927507,9.47377299 0.0682332144,9.59728662 L4.86808592,18.8288318 C4.9422148,18.9356773 5.06691013,18.9998907 5.20047572,19 L18.8000584,19 C18.9337657,19.0000192 19.0586406,18.9357906 19.1328482,18.8288318 L23.9327009,9.59728662 C24.0280045,9.45997557 24.0215661,9.27949495 23.9167014,9.14878738 Z M20.1352174,10.1257926 L17.2505059,11.0824114 L16.8105194,10.4669751 L20.1352174,10.1257926 Z M17.3720022,18.2307046 L6.62853189,18.2307046 L12.000267,13.6557047 L17.3720022,18.2307046 Z M16.46653,11.3424333 L12.4002548,12.6917775 L12.4002548,5.62656826 L16.46653,11.3424333 Z M11.6002793,12.6917775 L7.53400411,11.3424333 L11.6002793,5.62656826 L11.6002793,12.6917775 Z M6.75002817,11.0824114 L3.86531669,10.1257926 L7.18841471,10.4665905 L6.75002817,11.0824114 Z M3.41778043,13.9995797 L4.58774452,13.9995797 C4.82107069,13.9626535 4.93773378,13.8344376 4.93773378,13.614932 C4.93773378,13.3954264 4.82107069,13.2672105 4.58774452,13.2302843 L2.88499677,13.2302843 L1.39139261,10.1192536 L10.9394996,13.2856736 L5.34207137,18.126465 L3.41778043,13.9995797 Z M21.1151373,13.2302843 L17.8128387,13.2302843 C17.5795125,13.2672105 17.4628494,13.3954264 17.4628494,13.614932 C17.4628494,13.8344376 17.5795125,13.9626535 17.8128387,13.9995797 L20.5827537,13.9995797 L18.6588627,18.126465 L13.0610345,13.2856736 L22.6091415,10.1192536 L21.1151373,13.2302843 Z M5.85825744,13.9720672 C5.64706009,13.9720672 5.47585081,13.806757 5.47585081,13.6028364 C5.47585081,13.3989159 5.64706009,13.2336057 5.85825744,13.2336057 C6.0694548,13.2336057 6.24066408,13.3989159 6.24066408,13.6028364 C6.24066408,13.806757 6.0694548,13.9720672 5.85825744,13.9720672 Z" id="path-1"></path>
    </defs>
    <g id="Symbols" stroke="none" stroke-width="1" fill="none" fill-rule="evenodd">
        <g id="icon-/-origami" transform="translate(0.000000, -4.000000)">
            <mask id="mask-2" fill="white">
                <use xlink:href="#path-1"></use>
            </mask>
            <use id="Shape" fill="#575757" fill-rule="nonzero" xlink:href="#path-1"></use>
        </g>
    </g>
</svg>