<?xml version="1.0" encoding="UTF-8"?>
<svg width="18px" height="18px" viewBox="0 0 18 18" version="1.1" xmlns="http://www.w3.org/2000/svg" xmlns:xlink="http://www.w3.org/1999/xlink">
    <!-- Generator: Sketch 53.2 (72643) - https://sketchapp.com -->
    <title>Shape</title>
    <desc>Created with Sketch.</desc>
    <g id="Symbols" stroke="none" stroke-width="1" fill="none" fill-rule="evenodd">
        <g id="icon-/-paper-plane" transform="translate(-2.000000, -4.000000)" fill="#575757" fill-rule="nonzero">
            <g id="icon-/-snail">
                <path d="M19.3284482,4.01555803 C19.3233745,4.01679019 19.3182646,4.0178049 19.313191,4.01918201 L2.40033964,8.63171578 C1.97527689,8.74764702 1.85832937,9.29610068 2.19771999,9.57572725 L7.46155441,13.9122584 L6.49237946,16.8197079 C6.35111468,17.2435691 6.7554842,17.6487667 7.18000335,17.5073226 L10.087492,16.5381607 L14.4240815,21.8019243 C14.7048715,22.1426874 15.2523541,22.0235309 15.3681057,21.5993074 L19.9806652,4.6866473 C19.9821149,4.68132005 19.9832021,4.67592031 19.9844705,4.67055682 C20.0798912,4.27209983 19.7201336,3.9210083 19.3284482,4.01555803 Z M3.13272078,9.33421131 L17.5327208,5.40272078 L7.85972877,13.2327208 L3.13272078,9.33421131 Z M9.79538008,15.7766634 L7.31,16.69 L8.22334024,14.2046307 L16.9463961,7.0536039 L9.79538008,15.7766634 Z M14.6921492,20.8936396 L10.7936396,16.1666444 L18.6236396,6.49363961 L14.6921492,20.8936396 Z" id="Shape"></path>
            </g>
        </g>
    </g>
</svg>