<?xml version="1.0" encoding="UTF-8"?>
<svg width="18px" height="18px" viewBox="0 0 18 18" version="1.1" xmlns="http://www.w3.org/2000/svg" xmlns:xlink="http://www.w3.org/1999/xlink">
    <!-- Generator: Sketch 53.2 (72643) - https://sketchapp.com -->
    <title>Combined Shape</title>
    <desc>Created with Sketch.</desc>
    <g id="Symbols" stroke="none" stroke-width="1" fill="none" fill-rule="evenodd">
        <g id="icon-/-plane" transform="translate(-3.000000, -3.000000)" fill="#575757" fill-rule="nonzero">
            <g id="icon-/-snail">
                <g id="air-freight" transform="translate(3.000000, 3.000000)">
                    <path d="M8.49890351,9.02247807 C8.63610196,8.88527961 8.85814144,8.88527961 8.99506579,9.02247807 C9.13226425,9.15926533 9.13226425,9.38144189 8.99506579,9.51864035 C8.85814144,9.65583881 8.63610196,9.65583881 8.49890351,9.51864035 C8.36170505,9.38144189 8.36170505,9.15926533 8.49890351,9.02247807 Z M14.078125,1.0439967 C15.4812226,-0.038788386 16.8978893,-0.291803719 17.6037555,0.413651298 C18.3094846,1.1196546 18.0561952,2.53618421 16.9739583,3.93873354 C16.9734101,3.93955593 16.9727248,3.94037828 16.9721765,3.94106358 C16.5057566,4.54317435 16.2693256,4.70339912 14.1537829,6.84100877 L14.3621162,8.12116228 L14.9496985,7.53371712 C15.3611568,7.12225877 16.026864,7.12225877 16.4381853,7.53371712 C16.8496436,7.94503839 16.8496436,8.61115681 16.4381853,9.02261512 L14.779057,10.6817434 L15.7238213,16.4842379 C15.7845395,16.859375 15.6604989,17.243284 15.3922698,17.5115132 C14.8767818,18.0270011 14.0230263,17.9584704 13.5963542,17.3688322 L9.40871712,11.5860746 L8.325932,12.6688596 C7.95504386,13.0396107 7.44503839,13.4300987 6.80742874,13.8316886 L7.60032895,16.5283717 C7.71737937,16.926398 7.60786733,17.3562226 7.31455593,17.6499452 C6.81455593,18.1499452 5.98327853,18.0762061 5.57990681,17.4938322 L4.04934211,15.2828947 C3.1999726,15.6677632 2.58580042,15.901864 2.55742874,15.9125548 C2.42900218,15.9613487 2.28289474,15.930784 2.18475877,15.832648 C2.08717105,15.7350603 2.055784,15.5890899 2.10485196,15.4599781 C2.11567982,15.4316064 2.34964365,14.8174342 2.73451207,13.9680647 L0.523711614,12.4376371 C-0.0577028421,12.0349507 -0.133360737,11.2036733 0.367187509,10.703125 C0.661184211,10.4096765 1.09100877,10.3001645 1.48903509,10.4170779 L4.18585526,11.2101151 C4.58717105,10.5729167 4.97765898,10.0626371 5.34868421,9.69161186 L6.43133225,8.60882674 L0.648574561,4.42105263 C0.0598958246,3.99506579 -0.0101425263,3.14131032 0.505893649,2.62527411 C0.77425986,2.35690789 1.15789474,2.23286733 1.53289474,2.2937226 L7.33580042,3.23848684 L8.99506579,1.57922147 C9.40638705,1.16776316 10.0725055,1.16790021 10.4838267,1.57922147 C10.8954221,1.99067982 10.8952851,2.65638705 10.4838267,3.0678454 L9.89638158,3.65529056 L11.1765351,3.86376098 C13.3119518,1.75041119 13.4760142,1.51014253 14.078125,1.0439967 Z M9.49122807,2.07552084 L8.18928179,3.37733004 L9.04276316,3.51631032 L9.98766449,2.57154604 C10.1247259,2.43434758 10.1248629,2.2127193 9.98766449,2.07552084 C9.850466,1.93832239 9.62828947,1.93832239 9.49122807,2.07552084 Z M1.06003291,3.85252193 L6.93393642,8.1062226 L10.5651042,4.47519189 L1.42036733,2.98629386 C1.26795505,2.96148575 1.11143091,3.0120614 1.00219298,3.12143642 C0.792351965,3.33114035 0.819901333,3.67886512 1.06003291,3.85252193 Z M0.863349789,11.1995614 C0.672560316,11.3902138 0.701617333,11.7072368 0.923245614,11.8607456 L3.03563596,13.3230537 C3.29523025,12.7828947 3.55550986,12.2838542 3.81345944,11.8320998 L1.29111842,11.0903235 C1.13939144,11.0456414 0.975466,11.0875822 0.863349789,11.1995614 Z M6.81811951,17.154057 C6.92996161,17.0420779 6.97176533,16.8781524 6.92708333,16.7262884 L6.18544407,14.2040844 C5.73423793,14.4614858 5.23506032,14.7219024 4.69449014,14.9817708 L6.15679825,17.0942982 C6.31154056,17.3177084 6.62897477,17.3432018 6.81811951,17.154057 Z M15.4459978,8.02987937 L14.5012335,8.97464365 L14.6400768,9.82812498 L15.942023,8.52631579 C16.0790844,8.38911733 16.0792215,8.16707786 15.942023,8.02987937 C15.8048246,7.89268091 15.5830592,7.89281796 15.4459978,8.02987937 Z M15.0311129,16.5967653 L13.542352,7.45243968 L9.91118421,11.0836074 L14.1648849,16.9573739 C14.339364,17.198602 14.6873629,17.2240954 14.8961074,17.0153509 C15.0053454,16.9061129 15.0559211,16.7495888 15.0311129,16.5967653 Z M7.82976975,12.1725603 C16.3740406,3.60759319 15.9381853,4.11047151 16.3551261,3.58908989 C16.3919956,3.01219846 16.2205318,2.50411186 15.8669134,2.1504934 C15.5132949,1.79687502 15.0053454,1.62554825 14.4283169,1.66241775 C13.9081688,2.07839912 14.4159814,1.63733551 5.84498354,10.1877741 C5.46875,10.5638706 5.0631853,11.1100603 4.63952849,11.8109923 C4.06030702,12.7686404 3.51315789,13.9072094 3.07223137,14.9453125 C4.08292214,14.5160362 5.20339912,13.9790296 6.1502193,13.4120066 C6.87856358,12.9757401 7.44366775,12.5587993 7.82976975,12.1725603 Z M16.9555921,2.66707786 C17.34142,1.90625 17.4187226,1.22108004 17.1075932,0.909813614 C16.7135417,0.516036175 15.8584156,0.804413368 15.3506031,1.06195175 C15.7372533,1.174068 16.0820998,1.37335526 16.3632127,1.65433116 C16.6443256,1.93544407 16.8434759,2.28029056 16.9555921,2.66707786 Z M10.4838267,7.03755481 C10.6208881,6.9004934 10.8429276,6.9004934 10.9799891,7.03755481 C11.1170505,7.17461621 11.1170505,7.39679277 10.9799891,7.53371712 L9.98780154,8.52604168 C9.85060309,8.662966 9.62856358,8.66310309 9.49150218,8.52604168 C9.35444077,8.38898028 9.35444077,8.16680372 9.49150218,8.02974232 L10.4838267,7.03755481 Z M12.46875,5.05263158 C12.6058114,4.91557018 12.8278509,4.91557018 12.9649123,5.05263158 C13.1019737,5.18969298 13.1019737,5.41186951 12.9649123,5.54893091 L11.9723136,6.54152961 C11.8352522,6.67845396 11.6132127,6.67845396 11.4760142,6.54152961 C11.3390899,6.40446821 11.3390899,6.18229165 11.4760142,6.04523025 L12.46875,5.05263158 Z" id="Combined-Shape"></path>
                </g>
            </g>
        </g>
    </g>
</svg>