<?xml version="1.0" encoding="UTF-8"?>
<svg width="20px" height="20px" viewBox="0 0 20 20" version="1.1" xmlns="http://www.w3.org/2000/svg" xmlns:xlink="http://www.w3.org/1999/xlink">
    <!-- Generator: Sketch 53.2 (72643) - https://sketchapp.com -->
    <title>Shape</title>
    <desc>Created with Sketch.</desc>
    <g id="Symbols" stroke="none" stroke-width="1" fill="none" fill-rule="evenodd">
        <g id="icon-/-rocket" transform="translate(-2.000000, -2.000000)" fill="#575757" fill-rule="nonzero">
            <g id="icon-/-snail">
                <g id="startup" transform="translate(2.000000, 2.000000)">
                    <path d="M19.0647692,0.135184615 C18.9741231,0.0445846154 18.8504308,-0.00452307692 18.7218462,0.000323076923 C18.6174923,0.00406153846 16.1328,0.103938462 13.1791846,1.14789231 C10.8124154,1.98355385 8.83966154,3.18 7.31570769,4.704 C6.97421538,5.04549231 6.64190769,5.40761538 6.32395385,5.78381538 C4.81712308,4.89683077 3.60964615,5.17495385 2.84630769,5.58346154 C1.08872308,6.52407692 0.000830769231,9.07804615 0.000830769231,10.9048154 C0.000969230769,11.0914615 0.113446154,11.2597846 0.285876923,11.3311846 C0.342969231,11.3548615 0.402969231,11.3663538 0.462415385,11.3663538 C0.582553846,11.3663538 0.700569231,11.3194154 0.788861538,11.2311692 C1.71576923,10.3042615 2.85904615,10.3622308 3.23252308,10.4113385 L3.39415385,10.5729692 C3.07606154,11.3298923 2.81981538,12.0825692 2.63187692,12.8146154 C2.56403077,13.0795385 2.58692308,13.3598769 2.68776923,13.6163077 C2.2434,13.8210923 1.81467692,14.1217846 1.44138462,14.4950769 C0.253338462,15.6831692 0.0120923077,18.5785846 0.0024,18.7012615 C-0.00821538462,18.8358923 0.0406153846,18.9684462 0.136107692,19.0639385 C0.223015385,19.1508 0.340569231,19.1991231 0.462415385,19.1991231 C0.474507692,19.1991231 0.486646154,19.1986615 0.498784615,19.1976923 C0.621461538,19.1880462 3.51696923,18.9468 4.70501538,17.7587538 C5.07816923,17.3856 5.37881538,16.9569231 5.5836,16.5126462 C5.85507692,16.6194 6.13449231,16.6325538 6.38575385,16.5681692 C7.11747692,16.3802769 7.87006154,16.1241231 8.62707692,15.8059846 L8.78870769,15.9676154 C8.83776923,16.3411385 8.89573846,17.4844154 7.96887692,18.4112308 C7.83692308,18.5432308 7.79741538,18.7417385 7.86886154,18.9141692 C7.94026154,19.0866462 8.10853846,19.1990769 8.29523077,19.1990769 C10.122,19.1990769 12.6759231,18.1111846 13.6165385,16.3536 C14.0250462,15.5903538 14.3031692,14.3828769 13.4161846,12.876 C13.7922,12.5581846 14.1543692,12.2258769 14.496,11.8842462 C16.02,10.3602462 17.2164,8.38749231 18.0520615,6.02090769 C19.0960615,3.06715385 19.1958923,0.582415385 19.1996308,0.478107692 C19.2042462,0.350030769 19.1553692,0.225830769 19.0647692,0.135184615 Z M1.03273846,9.91209231 C1.31944615,8.52456923 2.1522,7.002 3.28204615,6.39729231 C4.03707692,5.99326154 4.86235385,6.03286154 5.73983077,6.51318462 C4.99227692,7.49635385 4.34238462,8.55558462 3.80067692,9.67412308 C3.7938,9.66987692 3.71072308,9.56543077 3.55638462,9.53063077 C3.49292308,9.51627692 2.27173846,9.25361538 1.03273846,9.91209231 Z M4.05230769,17.106 C3.41769231,17.7406154 1.929,18.0753231 0.988061538,18.2119846 C1.12476923,17.271 1.45952308,15.7823538 2.09409231,15.1477846 C2.44947692,14.7924 2.86153846,14.5229538 3.27572308,14.3712 L4.82889231,15.9243692 C4.67713846,16.3385538 4.40773846,16.7506154 4.05230769,17.106 Z M6.15646154,15.6739846 C6.02289231,15.7081846 5.86818462,15.6579692 5.75316923,15.5431385 C5.15607692,14.9460462 4.92249231,14.7124615 4.8492,14.6392154 C4.7148,14.5048154 4.38521538,14.1752308 3.65723077,13.4472 C3.54212308,13.3318615 3.49190769,13.1772 3.52601538,13.0438615 C3.67384615,12.4681385 3.86718462,11.8774615 4.10229231,11.2811077 L7.91898462,15.0978 C7.32253846,15.3329538 6.73195385,15.5262462 6.15646154,15.6739846 Z M12.8028,15.9180462 C12.1980923,17.0478462 10.6755692,17.8806462 9.28809231,18.1673077 C9.73047692,17.3348308 9.828,16.2750923 9.66636923,15.6324923 C9.62884615,15.4832308 9.53146154,15.4081846 9.52601538,15.3993692 C10.6444615,14.8576615 11.7036462,14.2077692 12.6869077,13.4602154 C13.1672308,14.3377846 13.2067846,15.1631538 12.8028,15.9180462 Z M13.8433846,11.2315385 C13.4274923,11.6473846 12.9796615,12.0491538 12.5123077,12.4256308 C11.3888308,13.3302462 10.1522769,14.0964923 8.83301538,14.7064615 L4.49363077,10.3671692 C5.1036,9.04781538 5.86984615,7.81126154 6.77436923,6.68792308 C7.15116923,6.22024615 7.55289231,5.77236923 7.9686,5.35670769 C9.33590769,3.98935385 11.1005538,2.90113846 13.2149538,2.11781538 L17.0822769,5.98513846 C16.2990462,8.09949231 15.2108308,9.86413846 13.8433846,11.2315385 Z M17.4143538,5.01170769 L14.1883846,1.78573846 C15.9459692,1.23983077 17.475,1.03541538 18.2382,0.961938462 C18.1646769,1.72527692 17.9602154,3.25430769 17.4143538,5.01170769 Z M13.8430615,5.35707692 C14.745,6.25896923 14.7448154,7.71895385 13.8430615,8.62070769 C12.9433385,9.52043077 11.4793385,9.52006154 10.5795231,8.6208 C9.67984615,7.72056923 9.67989231,6.25656923 10.5793846,5.35707692 C11.4812769,4.45523077 12.9412154,4.45527692 13.8430615,5.35707692 Z M13.1903538,7.96795385 C13.7315077,7.42684615 13.7314154,6.5508 13.1903538,6.00978462 C12.6492,5.46863077 11.7732,5.46872308 11.2321385,6.00978462 C10.6924154,6.54946154 10.6924615,7.42795385 11.2322308,7.96804615 C11.7721846,8.50767692 12.6506769,8.50767692 13.1903538,7.96795385 Z M7.96901538,11.2315846 C8.14901538,11.4115846 8.14901538,11.7037385 7.96901538,11.8842 C7.78855385,12.0642 7.4964,12.0642 7.31593846,11.8842 C7.13593846,11.7037385 7.13593846,11.4115846 7.31593846,11.2315846 C7.4964,11.0511231 7.78855385,11.0511231 7.96901538,11.2315846 Z M9.92690769,9.27318462 C10.1071385,9.45346154 10.1071385,9.74570769 9.92690769,9.92593846 L9.27429231,10.5785538 C9.09401538,10.7587846 8.80181538,10.7587846 8.62153846,10.5785538 C8.44130769,10.3982769 8.44130769,10.1060308 8.62153846,9.9258 L9.27415385,9.27318462 C9.45447692,9.09295385 9.74663077,9.09295385 9.92690769,9.27318462 Z" id="Shape"></path>
                </g>
            </g>
        </g>
    </g>
</svg>