<?xml version="1.0" encoding="UTF-8"?>
<svg width="20px" height="18px" viewBox="0 0 20 18" version="1.1" xmlns="http://www.w3.org/2000/svg" xmlns:xlink="http://www.w3.org/1999/xlink">
    <!-- Generator: Sketch 53.2 (72643) - https://sketchapp.com -->
    <title>Shape</title>
    <desc>Created with Sketch.</desc>
    <g id="Symbols" stroke="none" stroke-width="1" fill="none" fill-rule="evenodd">
        <g id="icon-/-snail" transform="translate(-2.000000, -3.000000)" fill="#575757" fill-rule="nonzero">
            <path d="M21.8814763,9.57552437 L21.5192463,9.18914242 C21.1905352,8.83855338 20.7965271,8.59478173 20.3770155,8.45912277 L21.220856,6.90025361 C21.3326258,6.69378602 21.2663169,6.42976483 21.0727335,6.31059909 C20.8791907,6.19147653 20.6316452,6.26211246 20.5198754,6.46858005 L19.7449752,7.90012321 L18.9929877,6.51093569 C18.8812178,6.30442493 18.6336724,6.23370265 18.4401295,6.35295474 C18.2465462,6.47212048 18.1801967,6.73614166 18.2920071,6.94260925 L19.0716841,8.38296032 C18.7008315,8.45700714 18.3406661,8.61321788 18.0158816,8.85349227 C16.9312563,6.64883981 15.6635295,4.95947417 13.6655594,4.1009814 C11.6675894,3.24248862 8.73817103,3.27208872 6.44775861,4.39505307 C4.59576268,5.30300099 3.18615044,6.92585697 2.47861181,8.96458409 C1.7710327,11.0033112 1.85021485,13.2138788 2.70154437,15.1891372 C3.15109332,16.2321828 3.8313473,17.112714 4.6791954,17.7690754 L2.17277279,19.719594 C2.03124888,19.8297359 1.9722266,20.0245028 2.026553,20.2021288 C2.0808794,20.379798 2.23616709,20.5 2.41133128,20.5 L11.5327422,20.5 C14.6253798,20.5 16.7812312,18.7251645 18.3267809,15.868166 L19.3914893,13.9000748 C19.6282666,13.4623998 19.8920451,13.0351734 20.1754573,12.6303121 L21.9195291,10.1390142 C22.0398811,9.96717378 22.023648,9.72715845 21.8814763,9.57552437 Z M3.43701535,14.8285745 C2.67600044,13.0628492 2.60523848,11.0867704 3.23776457,9.26431182 C3.87029067,7.44181006 5.13036362,5.99113994 6.785902,5.17951765 C7.9343265,4.61650273 9.15756113,4.33352728 10.3849249,4.33352728 C11.3953474,4.33352728 12.4177164,4.50542644 13.3845762,4.91070393 C15.3005324,5.71381309 16.4153983,7.34151223 17.3956215,9.45618593 C16.2599487,10.8993866 15.4324224,11.936733 13.7169307,12.3940531 C13.6398131,12.0261505 13.5256548,11.6643356 13.3745367,11.3137034 C12.9166485,10.2512718 12.0981901,9.44258549 11.0700367,9.03664482 C10.0418427,8.63074733 8.9270585,8.67616847 7.93084508,9.16448893 C6.24518833,9.99092058 5.50421184,12.1259302 6.27907149,13.9237784 C6.91762936,15.4052762 8.56721693,16.0566292 9.95626448,15.375528 C10.5142233,15.1019649 10.9389165,14.61304 11.152093,13.9987751 C11.3652695,13.3845535 11.3414258,12.7185206 11.0848934,12.1234691 C10.8707049,11.6264271 10.4878293,11.2481191 10.0067856,11.0582311 C9.5257824,10.8682999 9.00425705,10.8895425 8.53823206,11.118073 C7.72807239,11.5152489 7.37195514,12.5413696 7.74434602,13.4054507 C7.83773724,13.6220646 8.07807691,13.7170086 8.28109249,13.6174016 C8.48418903,13.5177946 8.57316774,13.2615451 8.47981701,13.0449311 C8.29384422,12.6133439 8.47168019,12.1008881 8.87629449,11.9024944 C9.14586193,11.7703327 9.44753133,11.7580707 9.72576185,11.8678673 C10.0040329,11.977707 10.2254676,12.1965229 10.349382,12.4840318 C10.5155592,12.8695934 10.5310232,13.3010943 10.3928998,13.6990474 C10.2547763,14.0970005 9.97962241,14.4138259 9.61812109,14.5910634 C8.63461892,15.0732097 7.46664177,14.6121333 7.01450199,13.5631726 C6.42606044,12.1978614 6.98879613,10.5765165 8.26890751,9.94891034 C9.91970953,9.13957639 11.8801559,9.91350603 12.6390252,11.6742229 C13.1098271,12.7665323 13.1535878,13.9890174 12.7622919,15.116472 C12.3709961,16.2439698 11.5914811,17.1413828 10.5672948,17.6435196 C9.2625301,18.2832151 7.80231578,18.3427116 6.45557157,17.8109993 C6.16240332,17.6952876 5.88235112,17.5544907 5.61727715,17.3908105 C5.60460638,17.3817436 5.5915308,17.3734538 5.57809089,17.3660275 C4.64381442,16.7777546 3.89976133,15.9022751 3.43701535,14.8285745 Z M19.5268195,12.1137545 C19.2243809,12.5457303 18.9429524,13.0015824 18.6903063,13.468574 L17.6255979,15.4366652 C16.2241629,18.0272678 14.3369479,19.6366097 11.5327017,19.6366097 L3.65274217,19.6366097 L5.42041478,18.2610226 C5.66217132,18.3972429 5.9137649,18.5178334 6.17446686,18.6207218 C6.87423301,18.897005 7.60047417,19.0345205 8.3250151,19.0344773 C9.20484372,19.0344773 10.0820006,18.8315934 10.9052763,18.4279842 C12.1259201,17.8295649 13.0549339,16.7599661 13.5213232,15.4161997 C13.7652253,14.7135105 13.8672796,13.979864 13.8289435,13.2535575 L13.8461887,13.2491104 C15.8259852,12.7382952 16.8870098,11.5233229 18.1572841,9.82581559 L18.381674,9.63739556 C19.1513115,8.99109415 20.2541537,9.06082338 20.9467546,9.79960776 L21.0613177,9.92179582 L19.5268195,12.1137545 Z M4.9077954,14.1070605 C5.00134854,14.3235449 4.91261271,14.5799672 4.70963762,14.6797469 C4.65478496,14.7066887 4.59717954,14.7194688 4.5405052,14.7194688 C4.38744401,14.7194688 4.24098132,14.6263813 4.17268875,14.4683572 L4.16613072,14.4531593 C4.07334673,14.2362431 4.16301363,13.9802095 4.36635306,13.8812501 C4.56973297,13.7822475 4.80978927,13.8778824 4.90257326,14.0947985 L4.9077954,14.1070605 Z M7.66075138,6.17580365 C7.75414259,6.3924176 7.66516388,6.64875346 7.46206734,6.74831729 C5.39924287,7.75967171 4.17305308,10.1425978 4.48006607,12.5431829 C4.51026539,12.7793988 4.3552206,12.9970058 4.13374538,13.0291719 C4.11520477,13.031892 4.09674513,13.0331873 4.07852838,13.0331873 C3.8792776,13.0331873 3.7056922,12.8762857 3.67800274,12.6598445 C3.50745346,11.326354 3.74516183,9.93539625 4.34736715,8.74330714 C4.97033958,7.51015766 5.93044335,6.54906009 7.12396443,5.96389589 C7.32714193,5.86428887 7.56736016,5.9591897 7.66075138,6.17580365 Z" id="Shape"></path>
        </g>
    </g>
</svg>