<?xml version="1.0" encoding="UTF-8"?>
<svg width="22px" height="13px" viewBox="0 0 22 13" version="1.1" xmlns="http://www.w3.org/2000/svg" xmlns:xlink="http://www.w3.org/1999/xlink">
    <!-- Generator: Sketch 53.2 (72643) - https://sketchapp.com -->
    <title>Shape</title>
    <desc>Created with Sketch.</desc>
    <g id="Symbols" stroke="none" stroke-width="1" fill="none" fill-rule="evenodd">
        <g id="icon-/-truck" transform="translate(-1.000000, -6.000000)" fill="#575757" fill-rule="nonzero">
            <path d="M21.8697712,11.9680094 L20.6535804,11.2684361 L19.9587612,8.32752 C19.7737862,7.54474667 19.0778554,6.99807373 18.2664028,6.99807373 L14.7714751,6.99807373 L14.7714751,6.44883137 C14.7714751,6.21909333 14.5834536,6.03287216 14.3515864,6.03287216 L1.41988865,6.03287216 C1.18802152,6.03287216 1,6.21909333 1,6.44883137 L1,16.3639467 C1,16.5936847 1.18802152,16.7799059 1.41988865,16.7799059 L2.76938667,16.7799059 C2.96453053,17.7298949 3.81427088,18.4470463 4.82996585,18.4470463 C5.84566082,18.4470463 6.69544234,17.7298949 6.8905862,16.7799059 L15.3911186,16.7799059 L15.3911186,16.7799467 C15.5862625,17.7299357 16.4360028,18.4470871 17.4516978,18.4470871 C18.4673927,18.4470871 19.3171743,17.7299357 19.5123181,16.7799467 L21.6589829,16.7799467 C21.8908501,16.7799467 22.0788716,16.5937255 22.0788716,16.3639875 L22.0788716,12.3277271 C22.0788304,12.1795169 21.9992084,12.0424816 21.8697712,11.9680094 Z M4.82996585,17.6152094 C4.13358222,17.6152094 3.56700632,17.0538949 3.56700632,16.3640282 C3.56700632,15.6741616 4.13358222,15.1128471 4.82996585,15.1128471 C5.52639064,15.1128471 6.09296655,15.6741208 6.09296655,16.3640282 C6.09296655,17.0539357 5.52639064,17.6152094 4.82996585,17.6152094 Z M13.9317389,14.4563827 L10.1443836,14.4563827 C9.91251649,14.4563827 9.72449497,14.6426039 9.72449497,14.872342 C9.72449497,15.10208 9.91251649,15.2883012 10.1443836,15.2883012 L13.9317389,15.2883012 L13.9317389,15.9480282 L6.8905862,15.9480282 C6.69544234,14.9980392 5.84566082,14.2808878 4.82996585,14.2808878 C3.81427088,14.2808878 2.96453053,14.9979984 2.76938667,15.9480282 L1.83977731,15.9480282 L1.83977731,13.7966557 L13.9317389,13.7966557 L13.9317389,14.4563827 Z M13.9317389,7.41407373 L13.9317389,12.9647373 L1.83977731,12.9647373 L1.83977731,6.86483137 L13.9317389,6.86483137 L13.9317389,7.41407373 L13.9317389,7.41407373 Z M17.2072739,7.83007373 L18.2664851,7.83007373 C18.6858798,7.83003294 19.0455785,8.11258667 19.1410919,8.51712627 L19.7565361,11.122102 L17.2073151,11.122102 L17.2073151,7.83007373 L17.2072739,7.83007373 Z M17.4516978,17.6152094 C16.7835977,17.6152094 16.2353011,17.0985129 16.191826,16.4473506 C16.1973839,16.4204329 16.2002657,16.3925773 16.2002657,16.3640282 C16.2002657,16.3354792 16.1973427,16.3076235 16.191826,16.2807059 C16.2353011,15.6295435 16.7835977,15.1128471 17.4516978,15.1128471 C18.1481226,15.1128471 18.7146985,15.6741208 18.7146985,16.3640282 C18.7146985,17.0539357 18.1481226,17.6152094 17.4516978,17.6152094 Z M21.2390531,13.9738227 L20.4402395,13.9738227 L20.4402395,13.5334745 L21.2390531,13.5334745 L21.2390531,13.9738227 Z M21.2390531,12.7015561 L20.0203509,12.7015561 C19.7884837,12.7015561 19.6004622,12.8877773 19.6004622,13.1175153 L19.6004622,14.389782 C19.6004622,14.61952 19.7884837,14.8057412 20.0203509,14.8057412 L21.2390531,14.8057412 L21.2390531,15.9480282 L19.5123181,15.9480282 C19.3171743,14.9980392 18.4673927,14.2808878 17.4516978,14.2808878 C16.4360028,14.2808878 15.5862625,14.9979984 15.3911186,15.9480282 L14.7715163,15.9480282 L14.7715163,7.83003294 L16.3674966,7.83003294 L16.3674966,11.5380612 C16.3674966,11.7677992 16.5555181,11.9540204 16.7873853,11.9540204 L20.1729665,11.9540204 L21.2390119,12.5672941 L21.2390119,12.7015561 L21.2390531,12.7015561 Z M8.72724398,14.4563827 C8.95911111,14.4563827 9.14713263,14.6426039 9.14713263,14.872342 C9.14713263,15.10208 8.95911111,15.2883012 8.72724398,15.2883012 L8.37293848,15.2883012 C8.14103018,15.2883012 7.95304982,15.10208 7.95304982,14.872342 C7.95304982,14.6426039 8.14107135,14.4563827 8.37293848,14.4563827 L8.72724398,14.4563827 Z" id="Shape"></path>
        </g>
    </g>
</svg>