<?xml version="1.0" encoding="UTF-8"?>
<svg width="19px" height="20px" viewBox="0 0 19 20" version="1.1" xmlns="http://www.w3.org/2000/svg" xmlns:xlink="http://www.w3.org/1999/xlink">
    <!-- Generator: Sketch 53.2 (72643) - https://sketchapp.com -->
    <title>Shape</title>
    <desc>Created with Sketch.</desc>
    <g id="Symbols" stroke="none" stroke-width="1" fill="none" fill-rule="evenodd">
        <g id="icon-/-yacht" transform="translate(-2.000000, -2.000000)" fill="#575757" fill-rule="nonzero">
            <path d="M12.5401129,14.9637009 L12.5401129,14.2424541 L19.4128402,14.2424541 C19.5928183,14.2424541 19.74542,14.110566 19.7710302,13.9330717 C19.7710302,10.9149933 18.8416436,6.51498404 12.5401129,3.24562982 L12.5401129,3.08187019 C12.5401129,2.48441162 12.0544016,2 11.4549454,2 C10.8556659,2 10.369778,2.48441162 10.369778,3.08187019 L10.369778,3.38438535 C8.23971292,10.0418313 2.22448697,13.5622353 2.16372889,13.6189349 C2.05563604,13.7201841 2.02048819,13.8772525 2.07524108,14.0147754 C2.12999402,14.1524744 2.26352048,14.2426302 2.41188322,14.2424541 L10.369778,14.2424541 L10.369778,14.9637009 L3.49705069,14.9637009 C3.34321265,14.9637009 3.20633039,15.0609002 3.15563978,15.2056426 L2.18121447,17.9929023 C1.86912288,18.7706725 1.96432232,19.6521572 2.43537398,20.3459347 C2.90642569,21.039536 3.69204172,21.4550981 4.53241064,21.4549221 L16.496276,21.4549221 C17.5277503,21.4596764 18.4573134,20.8361571 18.8416436,19.881949 L20.8279381,15.4718841 C20.8780988,15.3602458 20.868208,15.230999 20.8014447,15.128341 C20.7348581,15.0256831 20.6205835,14.9637009 20.4980076,14.9637009 L12.5401129,14.9637009 Z M19.080437,13.5212073 L12.5401129,13.5212073 L12.5401129,4.09700391 C17.9205427,7.34948844 18.5983203,9.8949187 19.080437,13.5212073 Z M3.56719094,13.5212073 C6.06345811,11.7180992 8.426,9.48368974 10.369778,5.44617213 L10.369778,13.5212073 L3.56719094,13.5212073 Z M11.0932229,3.08187019 C11.0932229,2.88271732 11.2551856,2.72124679 11.4549454,2.72124679 C11.6547053,2.72124679 11.8166679,2.88271732 11.8166679,3.08187019 L11.8166679,14.9637009 L11.0932229,14.9637009 L11.0932229,3.08187019 Z M10.369778,15.6849477 L19.9391746,15.6849477 L19.2881448,17.1274413 L3.24960284,17.1274413 L3.75421277,15.6849477 L10.369778,15.6849477 Z M18.1757775,19.600212 C17.9030727,20.2864177 17.2366767,20.7361405 16.496276,20.7336753 L4.53241064,20.7336753 C3.92906883,20.7338514 3.36546708,20.4343297 3.02953143,19.9347747 C2.69341921,19.4352197 2.62948191,18.8016636 2.85873769,18.245409 L2.9975628,17.8486881 L18.9647494,17.8486881 L18.1757775,19.600212 Z M17.5572462,11.7180904 C17.3853927,11.7179143 17.2375598,11.5974717 17.2031184,11.429662 C16.5068733,7.95795755 13.8394455,6.57971401 13.8129522,6.54801859 C13.7219917,6.45258015 13.6905529,6.3152334 13.7308228,6.18986042 C13.770916,6.06431132 13.8765362,5.97080983 14.006177,5.94562962 C14.1358177,5.92044936 14.2141806,5.99029527 14.3534164,6.06906564 C14.4915326,6.18986042 17.1792745,7.62674042 17.9134934,11.2868566 C17.9525269,11.4821356 17.8255355,11.6719559 17.6296613,11.7108709 C17.6058173,11.7158013 17.5816201,11.7182664 17.5572462,11.7180904 Z M9.2846105,12.0787138 C9.48437034,12.0787138 9.64633298,12.2401843 9.64633298,12.4393371 C9.64633298,12.63849 9.48437034,12.7999605 9.2846105,12.7999605 L7.83772054,12.7999605 C7.6379607,12.7999605 7.47599806,12.63849 7.47599806,12.4393371 C7.47599806,12.2401843 7.6379607,12.0787138 7.83772054,12.0787138 L9.2846105,12.0787138 Z" id="Shape"></path>
        </g>
    </g>
</svg>